<?xml version="1.0" encoding="UTF-8"?>
<svg width="389px" height="389px" viewBox="0 0 389 389" version="1.1" xmlns="http://www.w3.org/2000/svg" xmlns:xlink="http://www.w3.org/1999/xlink">
    <title>brandmark</title>
    <defs>
        <path d="M175,0 C187.075433,30.3939848 199.443104,55.4201308 212.103013,75.078438 L173.33598,75.0776089 L173.335,75.078 L212.103657,75.0794373 L212.305746,75.392744 C220.10838,87.4703845 228.021969,97.5100124 236.046512,105.511628 C257.163729,126.568511 295.148226,149.564635 350,174.5 C293.700667,199.526074 255.716171,221.845842 236.046512,241.459302 C216.376852,261.072763 196.028015,296.919662 175,349 C151.077752,296.739124 129.372325,260.892225 109.883721,241.459302 C90.3951167,222.02638 53.7672097,199.706612 0,174.5 C53.6939044,148.01377 90.3218114,125.017646 109.883721,105.511628 C129.44563,86.0056096 151.151057,50.8350669 175,0 Z M173.335,75.078 L172.811496,75.0783314 C159.361502,104.628252 146.951761,125.11427 135.582273,136.536387 C124.138199,148.033434 105.023581,159.112144 78.2384189,169.772518 C78.7851905,170.029483 79.3286278,170.285992 79.8687308,170.542043 C78.9142949,170.970962 77.9498309,171.401917 76.9752871,171.834359 C106.838759,185.386324 127.519018,197.884344 139.016065,209.328417 C150.513112,220.77249 161.591822,239.887108 172.252196,266.672271 C178.012479,254.415529 183.54308,243.834324 188.844178,234.927646 C180.508371,216.036735 170.638609,200.966145 159.234892,189.715877 C153.204942,183.767066 145.471732,177.970643 136.035261,172.326607 C143.328317,167.5008 149.714786,162.309987 155.194813,156.755214 C160.990311,150.880668 166.641175,143.389522 172.147406,134.281778 C177.056262,141.757579 182.34367,148.290576 188.009771,153.880434 C199.350345,165.068409 216.715459,175.717381 240.105113,185.82735 L240.678,186.074 L241.654515,185.553308 C249.179818,181.553462 257.71513,177.404633 267.260451,173.106822 L267.260487,217.376913 L267.261773,170.38636 C239.013339,157.363222 219.335614,145.323733 208.228598,134.267894 C201.108237,127.18034 194.148332,117.150684 187.348883,104.178927 L187.38898,104.085609 L186.897675,103.166875 C186.176777,101.811236 185.451037,100.422776 184.720456,99.0014948 C181.439793,92.335319 178.197226,84.9762902 174.992467,76.9240397 C174.850391,77.2263488 174.708455,77.5276386 174.566659,77.8279091 C174.23682,77.0961406 173.906076,76.3586092 173.574443,75.6151839 L173.335,75.078 Z" id="path-1"></path>
        <filter x="-4.0%" y="-4.0%" width="108.0%" height="108.0%" filterUnits="objectBoundingBox" id="filter-2">
            <feMorphology radius="1" operator="erode" in="SourceAlpha" result="shadowSpreadInner1"></feMorphology>
            <feGaussianBlur stdDeviation="7" in="shadowSpreadInner1" result="shadowBlurInner1"></feGaussianBlur>
            <feOffset dx="-4" dy="13" in="shadowBlurInner1" result="shadowOffsetInner1"></feOffset>
            <feComposite in="shadowOffsetInner1" in2="SourceAlpha" operator="arithmetic" k2="-1" k3="1" result="shadowInnerInner1"></feComposite>
            <feColorMatrix values="0 0 0 0 0   0 0 0 0 0   0 0 0 0 0  0 0 0 0.531304633 0" type="matrix" in="shadowInnerInner1"></feColorMatrix>
        </filter>
        <linearGradient x1="-26.0551203%" y1="50%" x2="100%" y2="50%" id="linearGradient-3">
            <stop stop-color="#000000" stop-opacity="0.107271635" offset="0%"></stop>
            <stop stop-color="#FFFFFF" stop-opacity="0.228447334" offset="100%"></stop>
        </linearGradient>
        <path d="M77.0656744,76.5575558 L265.718489,76.5575558 L265.718489,265.960072 L77.0656744,265.960072 Z M265.718489,76.5575558 L265.718489,265.960072 L77.0656744,265.960072 L77.0657859,169.201718 C106.059083,182.394556 126.159214,194.56703 137.366178,205.719142 C148.646667,216.944417 159.516699,235.693585 169.976274,261.966645 C170.229164,261.428702 170.481602,260.894049 170.733589,260.362687 C171.157661,261.305331 171.583411,262.258375 172.010642,263.221451 C185.303509,233.920487 197.56258,213.629761 208.787856,202.349272 C220.013131,191.068783 238.762299,180.198751 265.035359,169.739176 C253.012735,164.087291 242.633673,158.66077 233.897706,153.459698 C215.367944,161.638497 200.585471,171.32236 189.550285,182.511286 C183.71345,188.42944 178.026178,196.01978 172.488471,205.282306 C167.750832,198.12548 162.656172,191.858666 157.204164,186.481571 C151.442232,180.798811 144.09523,175.257822 135.163158,169.858606 C142.492139,165.043785 148.896806,159.858222 154.377229,154.301446 C165.510347,143.013222 176.099331,125.64136 186.144182,102.185859 L185.955582,102.624818 C181.876917,95.0139575 177.639291,86.325139 173.242706,76.558362 L265.718489,76.5575558 Z M170.56059,76.5573997 C157.789121,104.265624 145.982144,123.567644 135.139658,134.46346 C128.188318,141.448992 118.351713,148.277122 105.629843,154.947849 L105.525999,154.902255 L104.591817,155.402584 C103.084238,156.203815 101.535322,157.011142 99.9450707,157.824564 C93.566675,160.942219 86.5489233,164.025318 78.8921549,167.073556 C79.182333,167.20997 79.4715537,167.346253 79.759817,167.482404 C78.6841324,167.966475 77.5956295,168.453234 76.4939992,168.941928 L77.0649992,168.687255 L77.0656744,76.5575558 Z" id="path-4"></path>
    </defs>
    <g id="brandmark" stroke="none" stroke-width="1" fill="none" fill-rule="evenodd">
        <g id="Group-3" transform="translate(23, 21)">
            <g id="Path-3-Copy-3">
                <use fill-opacity="0.387893357" fill="#000000" fill-rule="evenodd" xlink:href="#path-1"></use>
                <use fill="black" fill-opacity="1" filter="url(#filter-2)" xlink:href="#path-1"></use>
            </g>
            <g id="Rectangle-2" transform="translate(171.1062, 171.2587) rotate(90) translate(-171.1062, -171.2587)">
                <use fill-opacity="0" fill="#FFFFFF" xlink:href="#path-4"></use>
                <use fill-opacity="0.2" fill="url(#linearGradient-3)" xlink:href="#path-4"></use>
            </g>
        </g>
    </g>
</svg>